Coordinates
version=1
nRows=16
nColumns=40
inDegrees=yes

Units are S.I. units (second, meters, Newtons, ...)
Angles are in degrees.

endheader
time	pelvis_tilt	pelvis_list	pelvis_rotation	pelvis_tx	pelvis_ty	pelvis_tz	hip_flexion_r	hip_adduction_r	hip_rotation_r	knee_angle_r	knee_angle_r_beta	ankle_angle_r	subtalar_angle_r	mtp_angle_r	hip_flexion_l	hip_adduction_l	hip_rotation_l	knee_angle_l	knee_angle_l_beta	ankle_angle_l	subtalar_angle_l	mtp_angle_l	lumbar_extension	lumbar_bending	lumbar_rotation	arm_flex_r	arm_add_r	arm_rot_r	elbow_flex_r	pro_sup_r	wrist_flex_r	wrist_dev_r	arm_flex_l	arm_add_l	arm_rot_l	elbow_flex_l	pro_sup_l	wrist_flex_l	wrist_dev_l
      0.80000000	     -3.63007692	     -3.29793296	     -8.40623467	      1.09102967	      0.92706709	      0.48495678	     16.85258770	      0.95639087	     -3.87815581	     23.64447045	     23.64447045	     11.64951772	     -2.25598181	     -1.83199289	     -2.49291104	     -4.74422382	    -12.83129606	     13.90242293	     13.90242293	     18.48356247	     -8.95052723	      1.03088882	     -6.99869573	      7.31405107	      0.64708185	    -14.73995751	    -13.14596549	     -4.44402638	     28.97487322	     45.86804609	      0.00000000	      0.00000000	     34.00718595	    -18.90089675	     -7.43983512	     76.17370214	     47.86227413	      0.00000000	      0.00000000
      0.82257143	     -3.62135520	     -3.24328588	     -7.85551821	      1.09198126	      0.92734389	      0.48919701	     16.38379106	      1.09070745	     -4.21047968	     23.60410704	     23.60410704	     11.97229836	     -2.56812703	     -1.82603930	     -2.59003637	     -5.08845177	    -12.52429547	     14.30251633	     14.30251633	     18.32399353	     -8.79763235	      1.07947473	     -7.04668971	      7.11817269	      0.76440284	    -14.45776762	    -13.30045274	     -4.47575619	     29.02779114	     45.87152493	      0.00000000	      0.00000000	     33.07237960	    -18.49822496	     -7.20217773	     75.81048147	     47.83365038	      0.00000000	      0.00000000
      0.84514286	     -3.73036188	     -3.63990863	     -7.25762411	      1.09275766	      0.92758212	      0.49357400	     15.70120304	      1.78923286	     -4.58825111	     22.99614225	     22.99614225	     12.07503156	     -2.94700658	     -1.43275158	     -2.14606860	     -6.09875603	    -12.19980029	     15.62456221	     15.62456221	     18.53544984	     -8.72888551	      1.18422022	     -6.93777099	      7.40377419	      0.52098342	    -13.89803930	    -13.60545877	     -4.59096161	     28.97898525	     45.89086373	      0.00000000	      0.00000000	     31.84399791	    -18.47357799	     -6.75948441	     74.83121568	     47.77864309	      0.00000000	      0.00000000
      0.86771429	     -3.78036840	     -3.81548086	     -6.68727404	      1.09340844	      0.92781869	      0.49778639	     15.13345442	      2.22454621	     -4.93036413	     22.64487498	     22.64487498	     12.29979688	     -3.27262549	     -1.18890239	     -1.80045743	     -6.82371361	    -11.90580297	     16.76059878	     16.76059878	     18.66884268	     -8.54036630	      1.39947074	     -6.89163949	      7.42813958	      0.45241000	    -13.26064307	    -13.84318317	     -4.69153094	     28.87032434	     45.91279644	      0.00000000	      0.00000000	     30.56369214	    -18.29954627	     -6.29563805	     73.85444896	     47.72156589	      0.00000000	      0.00000000
      0.89028571	     -3.67042142	     -3.82375893	     -6.20822874	      1.09409905	      0.92819851	      0.50184153	     14.51399479	      2.43940796	     -5.23606291	     22.48006259	     22.48006259	     12.58177747	     -3.44730900	     -1.16675302	     -1.75797275	     -7.25410482	    -11.53427536	     17.58000252	     17.58000252	     18.55371524	     -8.58973511	      1.42452671	     -7.00650244	      7.20375993	      0.67179722	    -12.71160427	    -14.07147441	     -4.74452012	     28.95143137	     45.91961166	      0.00000000	      0.00000000	     29.06948704	    -17.74096958	     -5.93139887	     73.14429779	     47.67421348	      0.00000000	      0.00000000
      0.91285714	     -3.80379769	     -4.17499012	     -5.60758203	      1.09441632	      0.92821858	      0.50597051	     13.94920078	      3.10087809	     -5.62167466	     21.93454139	     21.93454139	     12.73477092	     -3.78475734	     -0.85612703	     -0.91550449	     -8.25453321	    -11.05123740	     19.43627612	     19.43627612	     18.98781621	     -8.58814052	      2.10058312	     -6.80437977	      7.40352713	      0.37106957	    -11.41566551	    -14.34022568	     -4.94671233	     28.23168349	     45.98870090	      0.00000000	      0.00000000	     27.67923446	    -17.86006901	     -5.25167130	     70.96078522	     47.57988823	      0.00000000	      0.00000000
      0.93542857	     -3.71113683	     -4.39358441	     -5.10408906	      1.09479505	      0.92845097	      0.50989268	     13.22455343	      3.55364653	     -6.04062548	     21.50826003	     21.50826003	     12.92185240	     -3.79312749	     -0.80484993	     -0.45259632	     -8.95809330	    -10.37678749	     20.95013444	     20.95013444	     18.86474901	     -9.13406976	      1.98447480	     -6.89648029	      7.42105404	      0.51388625	    -10.53408180	    -14.65664482	     -5.05585163	     28.40891811	     45.99991351	      0.00000000	      0.00000000	     25.93409194	    -17.39048504	     -4.89107622	     69.84236893	     47.52368368	      0.00000000	      0.00000000
      0.95800000	     -3.67439715	     -4.60473574	     -4.58606150	      1.09501819	      0.92844585	      0.51374058	     12.59917086	      4.01929934	     -6.42999389	     21.13327646	     21.13327646	     13.15222208	     -3.91939746	     -0.79034447	      0.28589109	     -9.67440841	     -9.59412915	     22.79187451	     22.79187451	     18.65068028	     -9.83173164	      1.71725208	     -6.88935745	      7.41623418	      0.42509054	     -9.34752753	    -14.94953364	     -5.17107567	     28.65172417	     46.01163449	      0.00000000	      0.00000000	     24.06521947	    -17.07413325	     -4.53718508	     68.18007716	     47.45818885	      0.00000000	      0.00000000
      0.98057143	     -3.55241103	     -4.80241326	     -4.10248844	      1.09514050	      0.92841281	      0.51752690	     11.95817120	      4.46939808	     -6.74083015	     20.86996730	     20.86996730	     13.40361137	     -4.07704497	     -0.80784852	      1.10038940	    -10.36650172	     -8.75793176	     24.90483308	     24.90483308	     18.31183758	    -10.67413121	      1.27928387	     -6.95925021	      7.37678758	      0.40486534	     -7.99486100	    -15.25380545	     -5.26702311	     28.95259940	     46.02045739	      0.00000000	      0.00000000	     22.12774724	    -16.66618548	     -4.18365799	     66.33407242	     47.38933512	      0.00000000	      0.00000000
      1.00314286	     -3.45301511	     -5.00282320	     -3.60035537	      1.09506416	      0.92819274	      0.52120614	     11.39649225	      4.92603762	     -7.04677454	     20.66129979	     20.66129979	     13.64259480	     -4.31372343	     -0.82690303	      2.20564354	    -11.07165733	     -7.80633725	     27.42207637	     27.42207637	     17.77155315	    -11.68458474	      0.59072164	     -6.99517603	      7.32567913	      0.31111096	     -6.41376602	    -15.51581228	     -5.34962313	     29.33429406	     46.02658886	      0.00000000	      0.00000000	     20.11887306	    -16.25868292	     -3.83687378	     64.08464619	     47.31439184	      0.00000000	      0.00000000
      1.02571429	     -3.37239847	     -5.04183231	     -3.10676678	      1.09485034	      0.92778577	      0.52473317	     11.00652627	      5.23874100	     -7.10817824	     20.69099991	     20.69099991	     13.97957014	     -4.94394596	     -0.91686882	      3.45027609	    -11.54491049	     -6.74519610	     30.00146587	     30.00146587	     16.33855170	    -13.23036846	     -1.49797086	     -6.86236515	      7.10597450	      0.09621436	     -4.42316425	    -15.65879561	     -5.31240080	     29.20538297	     46.05377134	      0.00000000	      0.00000000	     18.64192771	    -15.61684982	     -3.61758988	     59.61709439	     47.22066717	      0.00000000	      0.00000000
      1.04828571	     -3.20943435	     -5.23922176	     -2.60916854	      1.09445443	      0.92724781	      0.52821293	     10.48330703	      5.70161052	     -7.31540854	     20.61563876	     20.61563876	     14.29780383	     -5.32427887	     -0.93767229	      4.92818401	    -12.25597860	     -5.76266314	     33.10814618	     33.10814618	     14.46291311	    -14.82383516	     -4.39952082	     -6.91708468	      7.04308395	      0.31639763	     -2.69112905	    -15.87689048	     -5.35385149	     29.62884774	     46.06059532	      0.00000000	      0.00000000	     17.12193290	    -14.73503955	     -3.29371085	     55.97431474	     47.13041722	      0.00000000	      0.00000000
      1.07085714	     -3.02286751	     -5.40800534	     -2.09754435	      1.09384481	      0.92652731	      0.53159292	     10.06814820	      6.13350981	     -7.45777880	     20.74827723	     20.74827723	     14.70536862	     -5.84059702	     -0.93021399	      6.65694904	    -12.96775378	     -4.81885586	     36.62096461	     36.62096461	     12.41085631	    -16.26738039	     -7.13015400	     -7.03710740	      6.93346159	      0.43110972	     -0.91122054	    -16.09636635	     -5.38202899	     30.70639796	     46.03779393	      0.00000000	      0.00000000	     15.52387693	    -13.96317611	     -2.92640628	     52.27397392	     47.03370809	      0.00000000	      0.00000000
      1.09342857	     -2.81485636	     -5.60811622	     -1.54922552	      1.09303671	      0.92561141	      0.53478988	      9.68567317	      6.57103828	     -7.72035301	     20.94609304	     20.94609304	     15.10840217	     -6.25739339	     -1.01358779	      8.73186744	    -13.68553924	     -3.74596791	     40.73414208	     40.73414208	     10.96481800	    -17.18422616	     -7.71672337	     -7.22017095	      6.85205994	      0.35074450	      1.17256027	    -16.24431286	     -5.49942904	     31.86039152	     46.01526376	      0.00000000	      0.00000000	     13.23455439	    -13.42997142	     -2.52159911	     50.15974017	     46.95097416	      0.00000000	      0.00000000
      1.11600000	     -2.61141908	     -5.71448948	     -1.01804484	      1.09200624	      0.92455692	      0.53784860	      9.44300244	      6.94352989	     -7.72004404	     21.34421372	     21.34421372	     15.58360099	     -7.10560158	     -0.87834782	     10.95041496	    -14.28076846	     -2.74537553	     44.94009066	     44.94009066	      9.20312664	    -17.93885974	     -8.16299763	     -7.33912466	      6.67735126	      0.44247707	      3.16802119	    -16.44050106	     -5.17442642	     33.60995955	     45.93900476	      0.00000000	      0.00000000	     12.09658394	    -12.56622602	     -2.12744180	     44.97729310	     46.84219011	      0.00000000	      0.00000000
      1.13857143	     -2.31896160	     -5.94181152	     -0.47131740	      1.09090539	      0.92346137	      0.54071542	      9.07528851	      7.39181224	     -8.00146653	     21.67617770	     21.67617770	     16.03743484	     -7.54434957	     -0.99335768	     13.21785659	    -14.96048873	     -1.70777293	     49.24289836	     49.24289836	      7.42571939	    -18.45589144	     -7.97987554	     -7.65111993	      6.63891477	      0.55424005	      5.46310314	    -16.60481752	     -5.30473229	     34.96003647	     45.90985888	      0.00000000	      0.00000000	      9.88382585	    -11.92494792	     -1.75202669	     43.11799394	     46.76202309	      0.00000000	      0.00000000
